<svg width="19.000000" height="19.000000" viewBox="0 0 19 19" fill="none" xmlns="http://www.w3.org/2000/svg" xmlns:xlink="http://www.w3.org/1999/xlink">
	<desc>
			Created with Pixso.
	</desc>
	<defs>
		<clipPath id="clip1_99">
			<rect id="ecology-book 1" rx="-0.500000" width="18.000000" height="18.000000" transform="translate(0.500000 0.500000)" fill="white" fill-opacity="0"/>
		</clipPath>
	</defs>
	<rect id="ecology-book 1" rx="-0.500000" width="18.000000" height="18.000000" transform="translate(0.500000 0.500000)" fill="#FFFFFF" fill-opacity="0"/>
	<g clip-path="url(#clip1_99)">
		<path id="Vector" d="M3.16 15.04L3.16 3.95C3.16 3.08 3.87 2.37 4.75 2.37L15.35 2.37C15.62 2.37 15.83 2.58 15.83 2.85L15.83 13.23" stroke="#00404E" stroke-opacity="1.000000" stroke-width="1.500000" stroke-linecap="round"/>
		<path id="Vector" d="M7.91 11.08C7.91 11.08 8.62 8.61 10.29 7.12" stroke="#00404E" stroke-opacity="1.000000" stroke-width="1.500000" stroke-linejoin="round" stroke-linecap="round"/>
		<path id="Vector" d="M10.02 9.84C8.68 9.97 7.49 8.98 7.36 7.64C7.23 6.31 8.21 5.12 9.55 4.99L11.91 4.77C12.06 4.76 12.2 4.87 12.21 5.02L12.41 7.06C12.55 8.46 11.53 9.7 10.13 9.83L10.02 9.84Z" stroke="#00404E" stroke-opacity="1.000000" stroke-width="1.500000" stroke-linejoin="round"/>
		<path id="Vector" d="M4.75 13.45L15.83 13.45" stroke="#00404E" stroke-opacity="1.000000" stroke-width="1.500000" stroke-linecap="round"/>
		<path id="Vector" d="M4.75 16.62L15.83 16.62" stroke="#00404E" stroke-opacity="1.000000" stroke-width="1.500000" stroke-linecap="round"/>
		<path id="Vector" d="M4.75 16.62C3.87 16.62 3.16 15.91 3.16 15.04C3.16 14.16 3.87 13.45 4.75 13.45" stroke="#00404E" stroke-opacity="1.000000" stroke-width="1.500000" stroke-linejoin="round" stroke-linecap="round"/>
	</g>
</svg>
