<svg width="19.000000" height="19.000000" viewBox="0 0 19 19" fill="none" xmlns="http://www.w3.org/2000/svg" xmlns:xlink="http://www.w3.org/1999/xlink">
	<desc>
			Created with Pixso.
	</desc>
	<defs>
		<clipPath id="clip1_135">
			<rect id="city 1" rx="-0.500000" width="18.000000" height="18.000000" transform="translate(0.500000 0.500000)" fill="white" fill-opacity="0"/>
		</clipPath>
	</defs>
	<rect id="city 1" rx="-0.500000" width="18.000000" height="18.000000" transform="translate(0.500000 0.500000)" fill="#FFFFFF" fill-opacity="0"/>
	<g clip-path="url(#clip1_135)">
		<path id="Vector" d="M5.54 7.13L5.54 7.12" stroke="#013D4E" stroke-opacity="1.000000" stroke-width="1.500000" stroke-linejoin="round" stroke-linecap="round"/>
		<path id="Vector" d="M8.7 7.13L8.71 7.12" stroke="#013D4E" stroke-opacity="1.000000" stroke-width="1.500000" stroke-linejoin="round" stroke-linecap="round"/>
		<path id="Vector" d="M5.54 10.29L5.54 10.29" stroke="#013D4E" stroke-opacity="1.000000" stroke-width="1.500000" stroke-linejoin="round" stroke-linecap="round"/>
		<path id="Vector" d="M8.7 10.29L8.71 10.29" stroke="#013D4E" stroke-opacity="1.000000" stroke-width="1.500000" stroke-linejoin="round" stroke-linecap="round"/>
		<path id="Vector" d="M5.54 13.46L5.54 13.45" stroke="#013D4E" stroke-opacity="1.000000" stroke-width="1.500000" stroke-linejoin="round" stroke-linecap="round"/>
		<path id="Vector" d="M8.7 13.46L8.71 13.45" stroke="#013D4E" stroke-opacity="1.000000" stroke-width="1.500000" stroke-linejoin="round" stroke-linecap="round"/>
		<path id="Vector" d="M11.87 7.12L16.15 7.12C16.41 7.12 16.62 7.33 16.62 7.6L16.62 16.15C16.62 16.41 16.41 16.62 16.15 16.62L11.87 16.62L2.84 16.62C2.58 16.62 2.37 16.41 2.37 16.15L2.37 4.43C2.37 4.17 2.58 3.95 2.84 3.95L7.12 3.95L7.12 2.85C7.12 2.58 7.33 2.37 7.59 2.37L11.4 2.37C11.66 2.37 11.87 2.58 11.87 2.85L11.87 7.12L11.87 10.29L11.87 13.45L11.87 16.62M11.87 10.29L13.45 10.29M11.87 13.45L13.45 13.45" stroke="#013D4E" stroke-opacity="1.000000" stroke-width="1.500000" stroke-linejoin="round" stroke-linecap="round"/>
	</g>
</svg>
