<svg width="19.000000" height="19.000000" viewBox="0 0 19 19" fill="none" xmlns="http://www.w3.org/2000/svg" xmlns:xlink="http://www.w3.org/1999/xlink">
	<desc>
			Created with Pixso.
	</desc>
	<defs>
		<clipPath id="clip1_87">
			<rect id="clipboard-check 1" rx="-0.500000" width="18.000000" height="18.000000" transform="translate(0.500000 0.500000)" fill="white" fill-opacity="0"/>
		</clipPath>
	</defs>
	<rect id="clipboard-check 1" rx="-0.500000" width="18.000000" height="18.000000" transform="translate(0.500000 0.500000)" fill="#FFFFFF" fill-opacity="0"/>
	<g clip-path="url(#clip1_87)">
		<path id="Vector" d="M6.72 3.16L4.75 3.16C3.87 3.16 3.16 3.87 3.16 4.75L3.16 15.83C3.16 16.7 3.87 17.41 4.75 17.41L9.5 17.41" stroke="#FFFFFF" stroke-opacity="1.000000" stroke-width="1.500000" stroke-linecap="round"/>
		<path id="Vector" d="M12.27 3.16L14.25 3.16C15.12 3.16 15.83 3.87 15.83 4.75L15.83 11.87" stroke="#FFFFFF" stroke-opacity="1.000000" stroke-width="1.500000" stroke-linecap="round"/>
		<path id="Vector" d="M6.33 3.56C6.33 3.34 6.51 3.16 6.72 3.16C6.94 3.16 7.12 2.98 7.16 2.77C7.28 2.09 7.73 0.79 9.5 0.79C11.26 0.79 11.71 2.09 11.83 2.77C11.87 2.98 12.05 3.16 12.27 3.16C12.48 3.16 12.66 3.34 12.66 3.56L12.66 5.06C12.66 5.32 12.45 5.54 12.19 5.54L6.8 5.54C6.54 5.54 6.33 5.32 6.33 5.06L6.33 3.56Z" stroke="#FFFFFF" stroke-opacity="1.000000" stroke-width="1.500000"/>
		<path id="Vector" d="M12.27 16.22L13.85 17.81L17.81 13.85" stroke="#FFFFFF" stroke-opacity="1.000000" stroke-width="1.500000" stroke-linejoin="round" stroke-linecap="round"/>
	</g>
</svg>
