<svg width="19.000000" height="19.000000" viewBox="0 0 19 19" fill="none" xmlns="http://www.w3.org/2000/svg" xmlns:xlink="http://www.w3.org/1999/xlink">
	<desc>
			Created with Pixso.
	</desc>
	<defs>
		<clipPath id="clip1_112">
			<rect id="elevator 1" rx="-0.500000" width="18.000000" height="18.000000" transform="translate(0.500000 0.500000)" fill="white" fill-opacity="0"/>
		</clipPath>
	</defs>
	<rect id="elevator 1" rx="-0.500000" width="18.000000" height="18.000000" transform="translate(0.500000 0.500000)" fill="#FFFFFF" fill-opacity="0"/>
	<g clip-path="url(#clip1_112)">
		<path id="Vector" d="M9.5 2.37L9.5 16.62" stroke="#00404E" stroke-opacity="1.000000" stroke-width="1.500000" stroke-linejoin="round" stroke-linecap="round"/>
		<path id="Vector" d="M16.62 16.15C16.62 16.41 16.41 16.62 16.15 16.62L2.84 16.62C2.58 16.62 2.37 16.41 2.37 16.15L2.37 2.85C2.37 2.58 2.58 2.37 2.84 2.37L16.15 2.37C16.41 2.37 16.62 2.58 16.62 2.85L16.62 16.15Z" stroke="#00404E" stroke-opacity="1.000000" stroke-width="1.500000" stroke-linejoin="round"/>
		<path id="Vector" d="M4.75 9.5L5.93 7.91L7.12 9.5" stroke="#00404E" stroke-opacity="1.000000" stroke-width="1.500000" stroke-linejoin="round" stroke-linecap="round"/>
		<path id="Vector" d="M11.87 9.5L13.06 11.08L14.25 9.5" stroke="#00404E" stroke-opacity="1.000000" stroke-width="1.500000" stroke-linejoin="round" stroke-linecap="round"/>
	</g>
</svg>
