<svg width="19.000000" height="19.000000" viewBox="0 0 19 19" fill="none" xmlns="http://www.w3.org/2000/svg" xmlns:xlink="http://www.w3.org/1999/xlink">
	<desc>
			Created with Pixso.
	</desc>
	<defs>
		<clipPath id="clip1_132">
			<rect id="golf 1" rx="-0.500000" width="18.000000" height="18.000000" transform="translate(0.500000 0.500000)" fill="white" fill-opacity="0"/>
		</clipPath>
	</defs>
	<rect id="golf 1" rx="-0.500000" width="18.000000" height="18.000000" transform="translate(0.500000 0.500000)" fill="#FFFFFF" fill-opacity="0"/>
	<g clip-path="url(#clip1_132)">
		<path id="Vector" d="M9.5 14.25L9.5 9.49L9.5 2.69C9.5 2.35 9.84 2.12 10.16 2.26L16.84 5.12C17.22 5.28 17.23 5.81 16.86 5.99L9.5 9.49" stroke="#024154" stroke-opacity="1.000000" stroke-width="1.500000" stroke-linejoin="round" stroke-linecap="round"/>
		<path id="Vector" d="M15.04 14.64C15.04 13.11 12.56 11.87 9.5 11.87C6.43 11.87 3.95 13.11 3.95 14.64C3.95 16.17 6.43 17.41 9.5 17.41C12.56 17.41 15.04 16.17 15.04 14.64Z" stroke="#024154" stroke-opacity="1.000000" stroke-width="1.500000" stroke-linejoin="round"/>
	</g>
</svg>
