<svg width="89.937988" height="18.000000" viewBox="0 0 89.938 18" fill="none" xmlns="http://www.w3.org/2000/svg" xmlns:xlink="http://www.w3.org/1999/xlink">
	<desc>
			Created with Pixso.
	</desc>
	<defs/>
	<rect id="Component 1" width="89.938011" height="18.000000" fill="#FFFFFF" fill-opacity="0"/>
	<path id="Vector" d="" fill="#4285F4" fill-opacity="1.000000" fill-rule="nonzero"/>
	<path id="Vector" d="M13.73 11.7C13.4 12.46 12.86 13.1 12.16 13.58L12.16 16L15.2 16C16.97 14.32 18 11.87 18 8.95C18 8.27 17.94 7.62 17.82 7L9 7L9 10.7L14.04 10.7C13.98 11.05 13.87 11.39 13.73 11.7ZM10 9.7L15.24 9.7L15.02 10.89C14.94 11.34 14.8 11.78 14.61 12.19C14.5 12.43 14.37 12.66 14.23 12.88C14.09 13.1 13.93 13.3 13.77 13.49C13.58 13.7 13.38 13.9 13.16 14.08L13.16 15L14.79 15C14.88 14.9 14.97 14.8 15.06 14.69C15.59 14.07 16.01 13.36 16.33 12.57C16.77 11.47 17 10.27 17 8.95C17 8.63 16.98 8.31 16.95 8L10 8L10 9.7Z" fill="#055972" fill-opacity="0.190000" fill-rule="evenodd"/>
	<path id="Vector" d="" fill="#34A853" fill-opacity="1.000000" fill-rule="nonzero"/>
	<path id="Vector" d="M15 15.9C14.74 16.13 14.46 16.34 14.17 16.54C12.79 17.47 11.05 18 9.03 18C5.51 18 2.48 16.05 1 13.23L1 11L3.99 11C4.7 13.04 6.69 14.56 9.03 14.56C10.25 14.56 11.27 14.24 12.07 13.72L14.17 15.29L15 15.9ZM13.32 15.9L11.99 14.91C11.67 15.07 11.33 15.2 10.98 15.3C10.37 15.47 9.72 15.56 9.03 15.56C8.66 15.56 8.3 15.53 7.93 15.46C7.63 15.41 7.34 15.34 7.05 15.24C6.77 15.15 6.5 15.04 6.23 14.91C5.91 14.75 5.61 14.57 5.32 14.35C5.03 14.15 4.77 13.93 4.53 13.68C4.32 13.47 4.13 13.25 3.95 13.02C3.71 12.69 3.5 12.35 3.33 12L2 12L2 12.97C2.06 13.1 2.14 13.22 2.21 13.33C2.47 13.74 2.77 14.12 3.11 14.48C3.3 14.68 3.49 14.86 3.7 15.04C4.03 15.33 4.39 15.59 4.77 15.82C5.04 15.98 5.32 16.13 5.6 16.26C5.98 16.43 6.37 16.57 6.77 16.68C6.99 16.75 7.22 16.8 7.44 16.84C7.96 16.94 8.49 17 9.03 17C10.12 17 11.11 16.83 12.03 16.5C12.49 16.34 12.92 16.14 13.32 15.9Z" fill="#055972" fill-opacity="0.190000" fill-rule="evenodd"/>
	<path id="Vector" d="" fill="#FBBC05" fill-opacity="1.000000" fill-rule="nonzero"/>
	<path id="Vector" d="M4 10.69C3.81 10.16 3.71 9.59 3.71 9C3.71 8.4 3.81 7.83 4 7.3L4 5L0.97 5C0.35 6.2 0 7.55 0 9C0 10.07 0.19 11.1 0.55 12.06C0.67 12.38 0.81 12.69 0.97 13L1.78 12.38L3.33 11.19L4 10.69ZM2.85 10.3C2.75 9.87 2.71 9.44 2.71 9.01L2.71 9L2.71 8.98C2.71 8.37 2.8 7.75 3 7.14L3 6L1.6 6C1.42 6.42 1.28 6.86 1.18 7.31C1.06 7.86 1 8.42 1 9C1 9.57 1.06 10.13 1.18 10.68C1.24 10.93 1.3 11.18 1.39 11.42L2.72 10.4L2.85 10.3Z" fill="#055972" fill-opacity="0.190000" fill-rule="evenodd"/>
	<path id="Vector" d="" fill="#EA4335" fill-opacity="1.000000" fill-rule="nonzero"/>
	<path id="Vector" d="M9 3.44C10.32 3.44 11.49 3.88 12.43 4.72L14.27 2.95L15 2.25C14.74 2.02 14.48 1.81 14.21 1.62C12.78 0.6 11.03 0 9 0C5.49 0 2.47 1.94 1 4.76L3.14 6.37L3.98 7C4.09 6.67 4.23 6.36 4.41 6.07C5.32 4.51 7.04 3.44 9 3.44ZM3.6 5.46C3.7 5.3 3.81 5.14 3.93 4.98C4.11 4.74 4.31 4.51 4.52 4.3C4.76 4.06 5.02 3.84 5.29 3.64C5.59 3.43 5.9 3.24 6.22 3.08C6.48 2.96 6.74 2.85 7.01 2.76C7.31 2.66 7.61 2.58 7.91 2.53C8.27 2.47 8.63 2.44 9 2.44C9.72 2.44 10.4 2.55 11.04 2.77C11.1 2.79 11.15 2.81 11.21 2.83C11.47 2.92 11.73 3.04 11.97 3.18C12.1 3.25 12.23 3.32 12.35 3.41L13.48 2.33C13.23 2.16 12.97 2.01 12.71 1.87C12.46 1.74 12.21 1.63 11.96 1.53C11.94 1.52 11.91 1.51 11.89 1.5C10.99 1.16 10.03 1 9 1C8.46 1 7.93 1.05 7.42 1.15C7.19 1.19 6.97 1.24 6.75 1.3C6.35 1.42 5.97 1.56 5.6 1.72C5.31 1.86 5.03 2.01 4.76 2.17C4.39 2.4 4.05 2.64 3.72 2.92C3.51 3.1 3.3 3.3 3.1 3.51C2.81 3.82 2.55 4.15 2.31 4.5L3.6 5.46Z" fill="#055972" fill-opacity="0.190000" fill-rule="evenodd"/>
	<path id="Vector" d="" fill="#459E97" fill-opacity="1.000000" fill-rule="nonzero"/>
	<path id="Vector" d="M28.53 6.19C28.18 6.01 27.75 5.92 27.26 5.92L24.08 5.92L24.08 13.51L27.26 13.51C28.1 13.51 28.76 13.31 29.23 12.9C29.56 12.61 29.77 12.25 29.88 11.82C29.92 11.62 29.95 11.41 29.95 11.19C29.95 10.9 29.9 10.63 29.81 10.37C29.81 10.36 29.8 10.35 29.8 10.33L29.8 10.33C29.79 10.3 29.78 10.27 29.76 10.24C29.75 10.21 29.74 10.18 29.72 10.15C29.65 10.02 29.57 9.9 29.47 9.78C29.43 9.75 29.4 9.71 29.36 9.67C29.27 9.58 29.16 9.5 29.04 9.42C29.14 9.33 29.22 9.24 29.29 9.14C29.32 9.11 29.34 9.07 29.36 9.04C29.45 8.89 29.52 8.73 29.57 8.57C29.62 8.41 29.64 8.24 29.64 8.06C29.64 7.61 29.54 7.23 29.35 6.92C29.16 6.6 28.89 6.36 28.53 6.19ZM28.26 7.99C28.26 7.98 28.26 7.98 28.26 7.97C28.26 7.78 28.21 7.62 28.13 7.49C28.09 7.43 28.05 7.38 28 7.34C27.84 7.18 27.61 7.11 27.33 7.11L25.46 7.11L25.46 8.87L27.33 8.87C27.38 8.87 27.43 8.86 27.48 8.86C27.69 8.83 27.87 8.76 28 8.62C28.06 8.57 28.11 8.51 28.14 8.44C28.22 8.31 28.25 8.16 28.26 7.99ZM27.48 10.08C27.45 10.08 27.43 10.08 27.4 10.08L25.46 10.08L25.46 12.29L27.4 12.29C27.71 12.29 27.96 12.21 28.16 12.06L28.16 12.06C28.19 12.04 28.22 12.02 28.25 11.99C28.46 11.79 28.57 11.52 28.57 11.19C28.57 11.07 28.56 10.97 28.53 10.87C28.48 10.68 28.39 10.52 28.25 10.38C28.21 10.35 28.18 10.32 28.14 10.29L28.14 10.29C27.96 10.16 27.74 10.09 27.48 10.08ZM30.79 10.14C30.76 10.32 30.74 10.52 30.74 10.73C30.74 11 30.77 11.27 30.83 11.51C30.85 11.6 30.88 11.68 30.9 11.76C30.92 11.81 30.94 11.86 30.96 11.91C30.99 11.98 31.02 12.05 31.05 12.12C31.07 12.14 31.08 12.17 31.09 12.2C31.33 12.64 31.66 12.99 32.08 13.25C32.51 13.5 33 13.63 33.57 13.63C33.95 13.63 34.29 13.57 34.6 13.46C34.86 13.36 35.1 13.24 35.3 13.08C35.34 13.05 35.38 13.02 35.42 12.98C35.58 12.84 35.71 12.68 35.81 12.51C35.86 12.44 35.89 12.36 35.93 12.28L35.6 12.12L34.85 11.75C34.78 11.89 34.68 12.01 34.56 12.12C34.49 12.17 34.42 12.22 34.35 12.27C34.22 12.34 34.08 12.4 33.92 12.43C33.82 12.45 33.7 12.46 33.58 12.46C33.49 12.46 33.41 12.46 33.32 12.44C33.12 12.41 32.94 12.35 32.77 12.25C32.71 12.21 32.65 12.17 32.6 12.12C32.45 11.99 32.33 11.83 32.25 11.65C32.18 11.48 32.13 11.31 32.11 11.12L36.08 11.12C36.11 11.04 36.12 10.95 36.13 10.85C36.13 10.81 36.14 10.78 36.14 10.74C36.15 10.68 36.15 10.62 36.15 10.56C36.15 10.18 36.09 9.84 35.97 9.52C35.91 9.37 35.85 9.23 35.77 9.1C35.68 8.94 35.57 8.79 35.44 8.65C35.21 8.4 34.93 8.21 34.6 8.06C34.28 7.92 33.9 7.85 33.47 7.85C32.96 7.85 32.49 7.97 32.07 8.23C31.71 8.45 31.42 8.74 31.19 9.1C31.15 9.15 31.12 9.2 31.09 9.25C31.09 9.26 31.09 9.26 31.09 9.26C30.97 9.47 30.89 9.69 30.83 9.93C30.81 10 30.8 10.07 30.79 10.14ZM32.83 10.1L34.73 10.1C34.72 9.97 34.7 9.85 34.65 9.74C34.62 9.64 34.57 9.55 34.51 9.47C34.43 9.35 34.33 9.25 34.21 9.16C34.17 9.14 34.14 9.12 34.11 9.1C33.92 9 33.71 8.95 33.47 8.95C33.24 8.95 33.03 9 32.84 9.1C32.8 9.12 32.77 9.14 32.73 9.16C32.52 9.3 32.35 9.5 32.24 9.77C32.19 9.87 32.16 9.98 32.14 10.1L32.83 10.1ZM37.29 9.86L37.98 11.88L38.42 13.16L38.54 13.51L39.71 13.51L39.82 13.18L40.33 11.72L40.47 11.31L40.88 10.12L41 9.77L41.12 10.12L41.53 11.31L41.67 11.72L42.17 13.19L42.28 13.51L43.46 13.51L43.58 13.16L44.02 11.88L45.01 8.97L45.35 7.97L43.96 7.97L43.32 9.9L42.91 11.17L42.81 11.46L42.71 11.17L42.27 9.91L42.14 9.54L41.64 8.12L41.59 7.97L40.42 7.97L40.37 8.12L39.74 9.91L39.29 11.17L39.19 11.46L39.1 11.17L38.68 9.9L38.04 7.97L36.65 7.97L36.99 8.97L37.03 9.1L37.29 9.86ZM45.85 9.93C45.79 10.18 45.76 10.45 45.76 10.73C45.76 11 45.79 11.27 45.85 11.51C45.9 11.72 45.98 11.93 46.07 12.12C46.09 12.14 46.1 12.17 46.11 12.2C46.35 12.64 46.68 12.99 47.1 13.25C47.53 13.5 48.02 13.63 48.59 13.63C48.97 13.63 49.31 13.57 49.62 13.46C49.88 13.36 50.12 13.24 50.32 13.08C50.36 13.05 50.4 13.02 50.44 12.98C50.6 12.84 50.73 12.68 50.83 12.51C50.88 12.44 50.91 12.36 50.95 12.28L50.62 12.12L49.87 11.75C49.8 11.89 49.7 12.01 49.58 12.12C49.51 12.17 49.44 12.22 49.37 12.27C49.24 12.34 49.1 12.4 48.94 12.43C48.84 12.45 48.72 12.46 48.6 12.46C48.51 12.46 48.43 12.46 48.34 12.44C48.14 12.41 47.96 12.35 47.79 12.25C47.73 12.21 47.67 12.17 47.62 12.12C47.47 11.99 47.35 11.83 47.27 11.65C47.2 11.48 47.15 11.31 47.13 11.12L51.1 11.12C51.13 11.04 51.14 10.95 51.15 10.85C51.15 10.81 51.16 10.78 51.16 10.74C51.17 10.68 51.17 10.62 51.17 10.56C51.17 10.18 51.11 9.84 50.99 9.52C50.93 9.37 50.87 9.23 50.79 9.1C50.7 8.94 50.59 8.79 50.46 8.65C50.23 8.4 49.95 8.21 49.62 8.06C49.3 7.92 48.92 7.85 48.49 7.85C47.98 7.85 47.51 7.97 47.09 8.23C46.73 8.45 46.44 8.74 46.21 9.1C46.17 9.15 46.14 9.2 46.11 9.25C46 9.46 45.91 9.69 45.85 9.93ZM47.85 10.1L49.75 10.1C49.74 9.97 49.72 9.85 49.67 9.74C49.64 9.64 49.59 9.55 49.53 9.47C49.45 9.35 49.35 9.25 49.23 9.16C49.2 9.14 49.16 9.12 49.13 9.1C48.95 9 48.73 8.95 48.49 8.95C48.26 8.95 48.05 9 47.86 9.1C47.82 9.12 47.79 9.14 47.75 9.16C47.54 9.3 47.37 9.5 47.26 9.77C47.21 9.87 47.18 9.98 47.16 10.1L47.85 10.1ZM52.17 11.92L52.17 13.51L53.5 13.51L53.5 10.43C53.5 10.05 53.59 9.74 53.78 9.52C53.8 9.49 53.82 9.47 53.84 9.45C53.89 9.4 53.94 9.35 54 9.31C54.03 9.29 54.05 9.27 54.08 9.26C54.16 9.21 54.25 9.17 54.34 9.15C54.36 9.14 54.39 9.13 54.42 9.13C54.51 9.11 54.61 9.09 54.71 9.09C54.72 9.09 54.74 9.09 54.75 9.09L55.23 9.09L55.23 7.91L54.9 7.91C54.84 7.91 54.77 7.91 54.71 7.92C54.61 7.93 54.51 7.94 54.42 7.96C54.35 7.97 54.29 7.99 54.23 8.01C54.12 8.05 54.01 8.1 53.91 8.15C53.83 8.2 53.76 8.26 53.69 8.33C53.59 8.44 53.49 8.58 53.42 8.75L53.42 7.97L52.17 7.97L52.17 11.92ZM56.23 7.9C56.11 7.95 55.97 7.97 55.81 7.97L55.71 7.97L55.71 9.16L56.66 9.16L56.66 11.61C56.66 12.23 56.83 12.72 57.17 13.06C57.51 13.4 57.99 13.57 58.61 13.57C58.71 13.57 58.82 13.56 58.95 13.55C59.07 13.54 59.17 13.52 59.27 13.51L59.27 12.37C59.21 12.38 59.14 12.38 59.08 12.39C59.02 12.4 58.96 12.4 58.92 12.4C58.8 12.4 58.69 12.39 58.59 12.37C58.52 12.35 58.44 12.33 58.38 12.3C58.24 12.23 58.14 12.13 58.08 12C58.02 11.87 57.99 11.72 57.99 11.53L57.99 9.16L59.25 9.16L59.25 7.97L57.99 7.97L57.99 6.71L56.66 6.71L56.66 7.14C56.66 7.41 56.59 7.61 56.44 7.76C56.38 7.82 56.31 7.86 56.23 7.9ZM60.17 10.16L60.17 11.36C60.17 11.65 60.2 11.92 60.27 12.16C60.31 12.3 60.35 12.43 60.41 12.55C60.58 12.89 60.82 13.16 61.13 13.35C61.14 13.36 61.16 13.36 61.17 13.37C61.48 13.54 61.84 13.63 62.24 13.63C62.44 13.63 62.62 13.61 62.79 13.57C62.96 13.53 63.12 13.46 63.26 13.38C63.33 13.34 63.4 13.29 63.46 13.25C63.49 13.22 63.53 13.19 63.56 13.15C63.65 13.07 63.73 12.96 63.79 12.85L63.79 13.51L65.04 13.51L65.04 7.97L63.72 7.97L63.72 11.22C63.72 11.46 63.67 11.67 63.58 11.85C63.48 12.03 63.35 12.17 63.18 12.27C63.16 12.28 63.13 12.3 63.1 12.31C63.04 12.34 62.97 12.36 62.91 12.38C62.81 12.4 62.71 12.41 62.61 12.41C62.43 12.41 62.27 12.38 62.12 12.32C62.08 12.3 62.05 12.29 62.02 12.27C61.85 12.17 61.72 12.03 61.63 11.86C61.54 11.68 61.49 11.48 61.49 11.25L61.49 7.97L60.17 7.97L60.17 10.16ZM68.52 7.92C68.38 7.95 68.24 8.01 68.12 8.07L68.11 8.07C68.09 8.09 68.07 8.1 68.05 8.11C67.98 8.15 67.92 8.2 67.86 8.24C67.79 8.3 67.74 8.35 67.68 8.42C67.68 8.42 67.67 8.43 67.66 8.44C67.61 8.5 67.56 8.58 67.52 8.65L67.52 7.97L66.28 7.97L66.28 13.51L67.6 13.51L67.6 10.26C67.6 10.02 67.65 9.81 67.74 9.63C67.8 9.52 67.87 9.43 67.96 9.35C68.01 9.3 68.07 9.26 68.14 9.22C68.16 9.21 68.19 9.19 68.22 9.18C68.28 9.15 68.35 9.12 68.41 9.11C68.51 9.08 68.61 9.07 68.71 9.07C68.94 9.07 69.13 9.12 69.29 9.22C69.46 9.32 69.59 9.45 69.68 9.63C69.78 9.81 69.83 10.02 69.83 10.26L69.83 13.51L71.15 13.51L71.15 9.95C71.15 9.86 71.15 9.77 71.14 9.68C71.11 9.38 71.02 9.1 70.89 8.86C70.71 8.54 70.47 8.29 70.15 8.11C69.84 7.94 69.48 7.85 69.08 7.85C68.88 7.85 68.69 7.87 68.52 7.92ZM72.64 14.02L72.34 14.13C72.35 14.17 72.37 14.2 72.38 14.24C72.5 14.52 72.66 14.76 72.89 14.98C72.89 14.98 72.9 14.98 72.9 14.99C73.15 15.23 73.45 15.41 73.8 15.55C74.15 15.68 74.53 15.75 74.94 15.75C75.47 15.75 75.93 15.64 76.33 15.42C76.73 15.21 77.05 14.91 77.28 14.53C77.51 14.15 77.63 13.72 77.63 13.24L77.63 7.97L76.38 7.97L76.38 8.61C76.35 8.58 76.33 8.55 76.3 8.53C76.2 8.42 76.09 8.32 75.96 8.23C75.9 8.19 75.84 8.15 75.77 8.11C75.65 8.04 75.51 7.99 75.38 7.95C75.16 7.88 74.93 7.85 74.69 7.85C74.18 7.85 73.73 7.97 73.33 8.21C72.93 8.44 72.62 8.76 72.39 9.16C72.28 9.35 72.2 9.55 72.15 9.77C72.08 10.01 72.05 10.28 72.05 10.56C72.05 10.84 72.08 11.11 72.15 11.36C72.21 11.57 72.29 11.76 72.39 11.95C72.57 12.28 72.81 12.55 73.1 12.77C73.18 12.83 73.26 12.88 73.34 12.93C73.69 13.13 74.08 13.25 74.5 13.28C74.57 13.28 74.64 13.29 74.72 13.29C74.92 13.29 75.12 13.26 75.3 13.22C75.48 13.18 75.64 13.11 75.8 13.03C75.89 12.98 75.98 12.92 76.07 12.86C76.15 12.79 76.23 12.72 76.3 12.63L76.3 13.24C76.3 13.51 76.25 13.74 76.13 13.93C76.12 13.95 76.1 13.98 76.08 14.01C75.97 14.16 75.83 14.29 75.65 14.38C75.45 14.48 75.21 14.53 74.94 14.53C74.59 14.53 74.29 14.45 74.05 14.28C74.02 14.26 73.98 14.24 73.95 14.21C73.81 14.1 73.7 13.96 73.62 13.79C73.61 13.75 73.59 13.71 73.57 13.66L73 13.88L72.64 14.02ZM76.3 10.39C76.28 10.18 76.21 9.98 76.11 9.8C76.04 9.66 75.94 9.54 75.83 9.43C75.81 9.41 75.78 9.39 75.76 9.37C75.72 9.34 75.68 9.31 75.63 9.28C75.62 9.27 75.62 9.27 75.61 9.26C75.59 9.26 75.58 9.25 75.57 9.24C75.51 9.21 75.44 9.18 75.38 9.15C75.22 9.1 75.06 9.07 74.88 9.07C74.6 9.07 74.35 9.14 74.13 9.26C73.91 9.39 73.73 9.57 73.6 9.8C73.48 10.03 73.42 10.28 73.42 10.57C73.42 10.85 73.48 11.11 73.6 11.33C73.73 11.56 73.9 11.73 74.12 11.86C74.34 11.99 74.6 12.05 74.88 12.05C75.03 12.05 75.17 12.04 75.3 12C75.42 11.97 75.52 11.93 75.62 11.87C75.63 11.87 75.64 11.86 75.65 11.85C75.67 11.84 75.7 11.82 75.72 11.8C75.89 11.68 76.02 11.53 76.12 11.34C76.24 11.12 76.3 10.86 76.3 10.57C76.3 10.51 76.3 10.45 76.3 10.39ZM83.67 9.1C83.64 9.04 83.6 8.98 83.57 8.93C83.5 8.83 83.43 8.74 83.35 8.65C83.12 8.4 82.84 8.21 82.51 8.06C82.18 7.92 81.81 7.85 81.37 7.85C80.86 7.85 80.4 7.97 79.98 8.23C79.62 8.45 79.32 8.74 79.09 9.1C79.06 9.15 79.03 9.2 79 9.25C78.88 9.46 78.8 9.69 78.74 9.93C78.67 10.18 78.64 10.45 78.64 10.73C78.64 11 78.67 11.27 78.74 11.51C78.79 11.72 78.86 11.93 78.96 12.12C78.97 12.14 78.98 12.17 79 12.2C79.23 12.64 79.56 12.99 79.99 13.25C80.41 13.5 80.91 13.63 81.48 13.63C81.85 13.63 82.2 13.57 82.51 13.46C82.77 13.36 83 13.24 83.2 13.08C83.25 13.05 83.29 13.02 83.33 12.98C83.49 12.84 83.62 12.68 83.72 12.51C83.76 12.44 83.8 12.36 83.83 12.28L83.51 12.12L82.76 11.75C82.68 11.89 82.58 12.01 82.46 12.12C82.4 12.17 82.33 12.22 82.25 12.27C82.13 12.34 81.99 12.4 81.83 12.43C81.72 12.45 81.61 12.46 81.49 12.46C81.4 12.46 81.31 12.46 81.23 12.44C81.03 12.41 80.84 12.35 80.68 12.25C80.61 12.21 80.56 12.17 80.5 12.12C80.36 11.99 80.24 11.83 80.15 11.65C80.08 11.48 80.04 11.31 80.02 11.12L83.98 11.12C84.01 11.04 84.03 10.95 84.03 10.85C84.04 10.81 84.04 10.78 84.05 10.74C84.05 10.68 84.05 10.62 84.05 10.56C84.05 10.18 83.99 9.84 83.87 9.52C83.82 9.37 83.75 9.23 83.67 9.1ZM80.74 10.1L82.64 10.1C82.63 9.97 82.6 9.85 82.56 9.74C82.52 9.64 82.47 9.55 82.42 9.47C82.34 9.35 82.24 9.25 82.11 9.16C82.08 9.14 82.05 9.12 82.01 9.1C81.83 9 81.62 8.95 81.37 8.95C81.14 8.95 80.93 9 80.74 9.1C80.71 9.12 80.67 9.14 80.64 9.16C80.42 9.3 80.26 9.5 80.14 9.77C80.1 9.87 80.07 9.98 80.05 10.1L80.74 10.1ZM85.06 11.92L85.06 13.51L86.38 13.51L86.38 10.26C86.38 10.02 86.43 9.81 86.53 9.63C86.58 9.52 86.65 9.43 86.74 9.35C86.79 9.3 86.85 9.26 86.92 9.22C86.95 9.21 86.98 9.19 87.01 9.18C87.07 9.15 87.13 9.12 87.2 9.11C87.29 9.08 87.39 9.07 87.5 9.07C87.72 9.07 87.91 9.12 88.07 9.22C88.24 9.32 88.37 9.45 88.47 9.63C88.56 9.81 88.61 10.02 88.61 10.26L88.61 13.51L89.93 13.51L89.93 9.95C89.93 9.53 89.85 9.17 89.67 8.86C89.49 8.54 89.25 8.29 88.93 8.11C88.62 7.94 88.26 7.85 87.86 7.85C87.66 7.85 87.48 7.87 87.3 7.92C87.16 7.95 87.03 8.01 86.9 8.07L86.9 8.07C86.87 8.09 86.85 8.1 86.83 8.11C86.76 8.15 86.7 8.2 86.64 8.24C86.58 8.3 86.52 8.35 86.46 8.42C86.46 8.42 86.45 8.43 86.45 8.44C86.39 8.5 86.35 8.58 86.3 8.65L86.3 7.97L85.06 7.97L85.06 11.92Z" fill="#055972" fill-opacity="0.190000" fill-rule="evenodd"/>
</svg>
