<svg width="139.570496" height="23.272736" viewBox="0 0 139.57 23.2727" fill="none" xmlns="http://www.w3.org/2000/svg" xmlns:xlink="http://www.w3.org/1999/xlink">
	<desc>
			Created with Pixso.
	</desc>
	<defs>
		<linearGradient x1="116.456390" y1="11.636364" x2="139.570480" y2="11.636364" id="paint_linear_1_34_0" gradientUnits="userSpaceOnUse">
			<stop stop-color="#FEA500"/>
			<stop offset="0.455000" stop-color="#FEA500"/>
			<stop offset="0.490000" stop-color="#FEA500"/>
			<stop offset="0.515000" stop-color="#D9D9D9"/>
			<stop offset="0.999800" stop-color="#D9D9D9"/>
			<stop offset="0.999900" stop-color="#219653" stop-opacity="0.000000"/>
			<stop offset="1.000000" stop-color="#D9D9D9"/>
		</linearGradient>
	</defs>
	<rect id="Frame 2" width="139.570480" height="23.272728" fill="#FFFFFF" fill-opacity="0"/>
	<path id="Vector" d="M119.45 0L136.57 0C138.22 0 139.57 1.34 139.57 3L139.57 20.27C139.57 21.92 138.22 23.27 136.57 23.27L119.45 23.27C117.8 23.27 116.45 21.92 116.45 20.27L116.45 3C116.45 1.34 117.8 0 119.45 0Z" fill="url(#paint_linear_1_34_0)" fill-opacity="1.000000" fill-rule="evenodd"/>
	<path id="Vector" d="M90.34 0L107.45 0C109.11 0 110.45 1.34 110.45 3L110.45 20.27C110.45 21.92 109.11 23.27 107.45 23.27L90.34 23.27C88.68 23.27 87.34 21.92 87.34 20.27L87.34 3C87.34 1.34 88.68 0 90.34 0Z" fill="#FEA500" fill-opacity="1.000000" fill-rule="evenodd"/>
	<path id="Vector" d="M61.22 0L78.34 0C79.99 0 81.34 1.34 81.34 3L81.34 20.27C81.34 21.92 79.99 23.27 78.34 23.27L61.22 23.27C59.57 23.27 58.22 21.92 58.22 20.27L58.22 3C58.22 1.34 59.57 0 61.22 0Z" fill="#FEA500" fill-opacity="1.000000" fill-rule="evenodd"/>
	<path id="Vector" d="M32.11 0L49.22 0C50.88 0 52.22 1.34 52.22 3L52.22 20.27C52.22 21.92 50.88 23.27 49.22 23.27L32.11 23.27C30.45 23.27 29.11 21.92 29.11 20.27L29.11 3C29.11 1.34 30.45 0 32.11 0Z" fill="#FEA500" fill-opacity="1.000000" fill-rule="evenodd"/>
	<path id="Vector" d="M3 0L20.11 0C21.77 0 23.11 1.34 23.11 3L23.11 20.27C23.11 21.92 21.77 23.27 20.11 23.27L3 23.27C1.34 23.27 0 21.92 0 20.27L0 3C0 1.34 1.34 0 3 0Z" fill="#FEA500" fill-opacity="1.000000" fill-rule="evenodd"/>
	<path id="Vector" d="M11.55 15.91L15.07 14.96L16.54 19.78L11.55 15.91ZM19.64 9.68L13.45 9.68L11.55 3.49L9.65 9.68L3.46 9.68L8.47 13.53L6.57 19.73L11.58 15.88L14.66 13.53L19.64 9.68Z" fill="#FFFFFF" fill-opacity="1.000000" fill-rule="nonzero"/>
	<path id="Vector" d="M40.44 15.91L43.96 14.96L45.43 19.78L40.44 15.91ZM48.53 9.68L42.35 9.68L40.44 3.49L38.54 9.68L32.35 9.68L37.36 13.53L35.46 19.73L40.47 15.88L43.55 13.53L48.53 9.68Z" fill="#FFFFFF" fill-opacity="1.000000" fill-rule="nonzero"/>
	<path id="Vector" d="M69.34 15.91L72.85 14.96L74.32 19.78L69.34 15.91ZM77.43 9.68L71.24 9.68L69.34 3.49L67.44 9.68L61.25 9.68L66.26 13.53L64.35 19.73L69.36 15.88L72.44 13.53L77.43 9.68Z" fill="#FFFFFF" fill-opacity="1.000000" fill-rule="nonzero"/>
	<path id="Vector" d="M98.23 15.91L101.75 14.96L103.21 19.78L98.23 15.91ZM106.32 9.68L100.13 9.68L98.23 3.49L96.33 9.68L90.14 9.68L95.15 13.53L93.25 19.73L98.25 15.88L101.34 13.53L106.32 9.68Z" fill="#FFFFFF" fill-opacity="1.000000" fill-rule="nonzero"/>
	<path id="Vector" d="M127.12 15.91L130.64 14.96L132.11 19.78L127.12 15.91ZM135.21 9.68L129.03 9.68L127.12 3.49L125.22 9.68L119.03 9.68L124.04 13.53L122.14 19.73L127.15 15.88L130.23 13.53L135.21 9.68Z" fill="#FFFFFF" fill-opacity="1.000000" fill-rule="nonzero"/>
</svg>
