<svg width="128.000000" height="38.000000" viewBox="0 0 128 38" fill="none" xmlns="http://www.w3.org/2000/svg" xmlns:xlink="http://www.w3.org/1999/xlink">
	<desc>
			Created with Pixso.
	</desc>
	<defs>
		<clipPath id="clip1_53">
			<rect id="Mind2Matter" rx="-0.500000" width="127.000000" height="37.000000" transform="translate(0.500000 0.500000)" fill="white" fill-opacity="0"/>
		</clipPath>
	</defs>
	<g clip-path="url(#clip1_53)">
		<path id="Vector" d="M37.06 10.8C37.06 10.37 36.89 9.96 36.59 9.66C36.29 9.36 35.89 9.19 35.47 9.19C35.2 9.19 34.94 9.27 34.71 9.4L31.51 5.88C31.64 5.65 31.7 5.39 31.7 5.13C31.71 4.84 31.63 4.54 31.47 4.29C31.32 4.03 31.1 3.83 30.84 3.69C30.58 3.56 30.29 3.5 29.99 3.52C29.7 3.55 29.42 3.65 29.19 3.83L24.3 1.65C24.3 1.27 24.16 0.9 23.91 0.61C23.66 0.32 23.32 0.12 22.95 0.07C22.58 0.01 22.2 0.09 21.87 0.29C21.55 0.49 21.31 0.8 21.2 1.17L13.74 1.17C13.63 0.79 13.4 0.46 13.07 0.25C12.75 0.04 12.36 -0.05 11.97 0.01C11.59 0.07 11.24 0.27 10.99 0.57C10.75 0.87 10.62 1.26 10.63 1.65C10.62 1.71 10.62 1.77 10.63 1.83L7.08 3.66C6.95 3.49 6.79 3.34 6.61 3.23C6.42 3.12 6.22 3.05 6.01 3.02C5.79 3 5.58 3.01 5.37 3.07C5.17 3.13 4.97 3.24 4.81 3.37C4.64 3.51 4.5 3.68 4.4 3.87C4.31 4.07 4.25 4.28 4.23 4.49C4.21 4.71 4.24 4.93 4.31 5.13C4.38 5.34 4.49 5.53 4.63 5.69L1.89 9.22C1.49 9.14 1.09 9.22 0.75 9.44C0.41 9.66 0.16 10.01 0.06 10.4C-0.04 10.8 0.01 11.22 0.21 11.58C0.4 11.93 0.72 12.2 1.1 12.33L1.1 16.83C0.86 16.91 0.63 17.05 0.45 17.24C0.27 17.43 0.13 17.66 0.06 17.91C-0.01 18.17 -0.02 18.43 0.03 18.69C0.08 18.95 0.19 19.19 0.36 19.39C0.53 19.6 0.74 19.76 0.98 19.86C1.22 19.96 1.48 19.99 1.74 19.97C2 19.94 2.25 19.85 2.46 19.7C2.68 19.56 2.85 19.36 2.98 19.12L6.66 19.7C6.7 20.08 6.88 20.43 7.16 20.69C7.44 20.95 7.8 21.1 8.18 21.11L9.82 24.35C9.58 24.45 9.37 24.61 9.2 24.82C9.04 25.02 8.93 25.27 8.88 25.53C8.83 25.79 8.84 26.06 8.92 26.31C9 26.57 9.13 26.8 9.32 26.98C9.51 27.17 9.73 27.31 9.98 27.38C10.24 27.46 10.5 27.47 10.76 27.42C11.01 27.37 11.25 27.25 11.45 27.08C11.66 26.91 11.81 26.69 11.91 26.45L17.5 28.19C17.52 28.51 17.64 28.82 17.84 29.07C18.03 29.33 18.3 29.52 18.6 29.62L18.52 34.84C18.15 34.95 17.84 35.2 17.64 35.52C17.44 35.85 17.36 36.24 17.42 36.62C17.48 37.01 17.67 37.35 17.95 37.61C18.24 37.86 18.61 38 18.99 38C19.37 38 19.74 37.86 20.03 37.61C20.32 37.35 20.51 37.01 20.57 36.62C20.62 36.24 20.54 35.85 20.34 35.52C20.14 35.2 19.83 34.95 19.47 34.84L19.56 29.62C19.85 29.53 20.1 29.36 20.3 29.13C20.49 28.89 20.62 28.61 20.66 28.31C20.71 28.01 20.66 27.7 20.54 27.42C20.42 27.14 20.22 26.9 19.97 26.74L20.75 24.35L26.52 26.36C26.52 26.7 26.63 27.03 26.83 27.31C27.03 27.59 27.31 27.79 27.64 27.9L27.64 34.83C27.27 34.95 26.96 35.19 26.76 35.52C26.56 35.85 26.48 36.24 26.54 36.62C26.59 37 26.79 37.35 27.07 37.6C27.36 37.85 27.73 37.99 28.11 37.99C28.49 37.99 28.86 37.85 29.15 37.6C29.44 37.35 29.63 37 29.68 36.62C29.74 36.24 29.66 35.85 29.46 35.52C29.26 35.19 28.95 34.95 28.59 34.83L28.59 27.9C28.8 27.83 29 27.72 29.17 27.56C29.34 27.41 29.48 27.22 29.57 27.01C29.66 26.8 29.7 26.57 29.7 26.34C29.7 26.11 29.64 25.88 29.54 25.68L34.63 21.39C34.88 21.55 35.17 21.64 35.47 21.64C35.84 21.64 36.21 21.5 36.49 21.25C36.78 21 36.97 20.65 37.03 20.27C37.08 19.9 37.01 19.51 36.81 19.18C36.61 18.86 36.3 18.61 35.94 18.5L35.94 12.33C36.26 12.23 36.54 12.03 36.75 11.75C36.95 11.48 37.06 11.14 37.06 10.8ZM34.64 18.66L29.99 14.69L34.55 12.13C34.68 12.22 34.83 12.29 34.98 12.33L34.98 18.5C34.86 18.54 34.74 18.59 34.64 18.66L34.64 18.66ZM17.74 27.26L11.99 25.46C11.93 25.18 11.78 24.92 11.58 24.72C11.38 24.51 11.13 24.36 10.85 24.29L9.11 20.84C9.25 20.73 9.38 20.6 9.49 20.45L16.8 22.99L17.94 26.96C17.86 27.05 17.8 27.15 17.74 27.26ZM6.83 18.75L3.14 18.18C3.11 17.87 2.98 17.58 2.79 17.34C2.59 17.1 2.34 16.93 2.05 16.83L2.05 12.33C2.29 12.25 2.51 12.12 2.69 11.94C2.87 11.75 3.01 11.53 3.08 11.28L6.83 11.28L7.69 17.98C7.32 18.12 7.01 18.39 6.83 18.75ZM5.89 6.3C5.99 6.3 6.09 6.29 6.19 6.27L6.71 10.32L3.08 10.32C3.01 10.09 2.89 9.87 2.73 9.7L5.46 6.23C5.6 6.27 5.74 6.29 5.89 6.3ZM8.64 17.95L7.78 11.28L12.26 11.28C12.36 11.6 12.55 11.88 12.82 12.08C13.08 12.29 13.4 12.4 13.73 12.41L14.61 15.44L9.29 18.32C9.11 18.15 8.89 18.02 8.64 17.95ZM22.74 11.01L17.91 13.65L15.34 11.02C15.38 10.8 15.37 10.57 15.31 10.35C15.24 10.13 15.13 9.93 14.98 9.77L18.06 6.83L22.78 10.34C22.7 10.56 22.69 10.8 22.73 11.03L22.74 11.01ZM14.9 11.94L17.04 14.13L15.47 14.97L14.65 12.14C14.74 12.08 14.82 12.01 14.9 11.94ZM14.41 10.78C14.41 10.91 14.37 11.04 14.3 11.15C14.23 11.25 14.13 11.34 14.02 11.39C13.9 11.43 13.77 11.45 13.64 11.42C13.52 11.4 13.41 11.34 13.32 11.24C13.23 11.15 13.17 11.04 13.14 10.91C13.12 10.78 13.13 10.65 13.18 10.53C13.23 10.42 13.31 10.31 13.41 10.24C13.52 10.17 13.64 10.13 13.77 10.13C13.86 10.13 13.94 10.15 14.02 10.18C14.1 10.21 14.18 10.26 14.24 10.33C14.3 10.39 14.35 10.46 14.38 10.54C14.41 10.63 14.43 10.71 14.42 10.8L14.41 10.78ZM9.8 19.56C9.8 19.54 9.8 19.52 9.8 19.5C9.8 19.39 9.79 19.27 9.77 19.16L14.88 16.39L16.47 21.87L9.8 19.56ZM15.74 15.93L17.73 14.84L20.6 17.78C20.46 18.14 20.45 18.53 20.57 18.9C20.7 19.26 20.95 19.56 21.28 19.75L20.14 23.15L17.56 22.25L15.74 15.93ZM22.08 19.01C21.95 19.01 21.82 18.97 21.72 18.9C21.61 18.83 21.53 18.73 21.48 18.61C21.43 18.49 21.42 18.36 21.45 18.23C21.47 18.1 21.53 17.99 21.62 17.9C21.71 17.81 21.83 17.74 21.95 17.72C22.08 17.69 22.2 17.71 22.32 17.76C22.44 17.8 22.54 17.89 22.61 18C22.68 18.1 22.72 18.23 22.72 18.36C22.72 18.44 22.7 18.53 22.67 18.61C22.64 18.69 22.59 18.76 22.53 18.82C22.47 18.88 22.4 18.93 22.33 18.96C22.25 19 22.16 19.02 22.08 19.02L22.08 19.01ZM22.08 16.75C21.76 16.75 21.45 16.84 21.19 17.02L18.6 14.37L23.16 11.89C23.44 12.19 23.83 12.38 24.24 12.4C24.65 12.42 25.05 12.27 25.36 11.99L28.32 14.51L23.29 17.33C23.14 17.15 22.96 17 22.75 16.9C22.54 16.81 22.31 16.75 22.08 16.75L22.08 16.75ZM29.57 6.64C29.77 6.72 29.99 6.76 30.21 6.74C30.43 6.73 30.64 6.66 30.83 6.56L34.04 10.1C33.94 10.3 33.89 10.51 33.88 10.72C33.87 10.94 33.9 11.16 33.98 11.36L29.2 14.03L25.85 11.18C25.94 10.83 25.91 10.46 25.76 10.14L29.57 6.64ZM24.95 10.8C24.95 10.93 24.91 11.06 24.84 11.16C24.77 11.27 24.67 11.35 24.56 11.4C24.44 11.45 24.31 11.47 24.19 11.44C24.06 11.42 23.95 11.36 23.86 11.27C23.77 11.18 23.71 11.06 23.68 10.94C23.65 10.81 23.67 10.68 23.71 10.56C23.76 10.44 23.84 10.34 23.94 10.27C24.05 10.19 24.17 10.15 24.3 10.15C24.38 10.15 24.47 10.17 24.55 10.2C24.63 10.23 24.7 10.28 24.76 10.34C24.82 10.4 24.87 10.47 24.9 10.55C24.93 10.63 24.95 10.72 24.95 10.8ZM23.66 18.23L29.09 15.19L33.58 19.02L23.6 18.82C23.64 18.68 23.67 18.53 23.67 18.37C23.67 18.32 23.66 18.27 23.66 18.23ZM35.47 10.15C35.59 10.15 35.72 10.19 35.82 10.26C35.93 10.33 36.01 10.43 36.06 10.55C36.11 10.67 36.12 10.8 36.1 10.93C36.07 11.06 36.01 11.17 35.92 11.26C35.83 11.35 35.72 11.42 35.59 11.44C35.47 11.47 35.34 11.45 35.22 11.4C35.1 11.36 35 11.27 34.93 11.16C34.86 11.06 34.83 10.93 34.83 10.8C34.83 10.63 34.89 10.46 35.01 10.34C35.13 10.22 35.3 10.15 35.47 10.15ZM30.1 4.48C30.23 4.48 30.36 4.52 30.46 4.59C30.57 4.66 30.65 4.76 30.7 4.88C30.75 5 30.76 5.13 30.73 5.26C30.71 5.38 30.65 5.5 30.56 5.59C30.47 5.68 30.35 5.74 30.23 5.77C30.11 5.79 29.98 5.78 29.86 5.73C29.74 5.68 29.64 5.6 29.57 5.49C29.5 5.38 29.46 5.26 29.46 5.13C29.46 4.96 29.53 4.79 29.65 4.67C29.77 4.55 29.93 4.48 30.1 4.48ZM28.59 4.62C28.5 4.86 28.47 5.11 28.51 5.36C28.54 5.61 28.64 5.85 28.78 6.05L25.11 9.42C24.83 9.25 24.51 9.17 24.19 9.19C23.86 9.22 23.56 9.34 23.31 9.55L18.75 6.16L21.98 3.08C22.2 3.19 22.44 3.25 22.69 3.26C22.94 3.26 23.2 3.19 23.42 3.07C23.65 2.95 23.84 2.78 23.99 2.57L28.59 4.62ZM21.3 2.41L17.98 5.58L13.66 2.37C13.7 2.29 13.73 2.21 13.75 2.13L21.19 2.13C21.22 2.23 21.26 2.32 21.3 2.41ZM22.69 1C22.82 1 22.95 1.04 23.05 1.11C23.16 1.18 23.24 1.28 23.29 1.4C23.34 1.52 23.35 1.65 23.32 1.78C23.3 1.9 23.24 2.02 23.15 2.11C23.06 2.2 22.94 2.26 22.82 2.29C22.7 2.31 22.57 2.3 22.45 2.25C22.33 2.2 22.23 2.12 22.16 2.01C22.09 1.9 22.05 1.78 22.05 1.65C22.05 1.56 22.07 1.48 22.1 1.4C22.13 1.32 22.18 1.25 22.24 1.19C22.3 1.13 22.37 1.08 22.45 1.05C22.53 1.01 22.61 1 22.7 1L22.69 1ZM12.23 1C12.35 1 12.48 1.04 12.58 1.11C12.69 1.18 12.77 1.28 12.82 1.4C12.87 1.52 12.88 1.65 12.86 1.78C12.83 1.9 12.77 2.02 12.68 2.11C12.59 2.2 12.48 2.26 12.35 2.29C12.23 2.31 12.1 2.3 11.98 2.25C11.87 2.2 11.76 2.12 11.69 2.01C11.62 1.9 11.59 1.78 11.59 1.65C11.59 1.48 11.65 1.31 11.77 1.19C11.89 1.07 12.06 1 12.23 1ZM11.04 2.71C11.27 2.99 11.59 3.17 11.95 3.24C12.3 3.3 12.67 3.24 12.98 3.06L17.28 6.25L14.15 9.24C13.76 9.13 13.34 9.19 12.98 9.39C12.63 9.59 12.37 9.92 12.25 10.32L7.66 10.32L7.07 5.75C7.34 5.46 7.48 5.08 7.48 4.68C7.48 4.64 7.48 4.6 7.48 4.56L11.04 2.71ZM5.89 4.03C6.02 4.03 6.14 4.07 6.25 4.14C6.36 4.22 6.44 4.32 6.49 4.44C6.53 4.56 6.55 4.69 6.52 4.81C6.5 4.94 6.44 5.06 6.35 5.15C6.26 5.24 6.14 5.3 6.02 5.32C5.89 5.35 5.76 5.34 5.65 5.29C5.53 5.24 5.43 5.15 5.36 5.05C5.29 4.94 5.25 4.81 5.25 4.69C5.25 4.51 5.32 4.35 5.44 4.23C5.56 4.1 5.72 4.03 5.89 4.03ZM1.57 10.15C1.7 10.15 1.82 10.19 1.93 10.26C2.03 10.33 2.12 10.43 2.16 10.55C2.21 10.67 2.23 10.8 2.2 10.93C2.18 11.06 2.11 11.17 2.02 11.26C1.94 11.35 1.82 11.42 1.7 11.44C1.57 11.47 1.44 11.45 1.33 11.4C1.21 11.36 1.11 11.27 1.04 11.16C0.97 11.06 0.93 10.93 0.93 10.8C0.93 10.63 1 10.46 1.12 10.34C1.24 10.22 1.4 10.15 1.57 10.15ZM1.57 19.02C1.44 19.02 1.32 18.98 1.21 18.91C1.11 18.83 1.03 18.73 0.98 18.61C0.93 18.5 0.92 18.36 0.94 18.24C0.97 18.11 1.03 18 1.12 17.9C1.21 17.81 1.32 17.75 1.45 17.73C1.57 17.7 1.7 17.71 1.82 17.76C1.93 17.81 2.03 17.9 2.1 18C2.18 18.11 2.21 18.24 2.21 18.36C2.21 18.54 2.15 18.7 2.02 18.83C1.9 18.95 1.74 19.02 1.57 19.02ZM7.59 19.5C7.59 19.37 7.62 19.24 7.7 19.14C7.77 19.03 7.87 18.95 7.98 18.9C8.1 18.85 8.23 18.83 8.35 18.86C8.48 18.88 8.59 18.95 8.68 19.04C8.77 19.13 8.83 19.24 8.86 19.37C8.88 19.5 8.87 19.63 8.82 19.75C8.77 19.87 8.69 19.97 8.59 20.04C8.48 20.11 8.36 20.15 8.23 20.15C8.06 20.15 7.9 20.08 7.77 19.96C7.65 19.84 7.59 19.67 7.59 19.5ZM10.46 26.49C10.33 26.49 10.21 26.45 10.1 26.38C10 26.3 9.91 26.2 9.87 26.08C9.82 25.97 9.8 25.83 9.83 25.71C9.85 25.58 9.91 25.47 10 25.37C10.09 25.28 10.21 25.22 10.33 25.2C10.46 25.17 10.59 25.18 10.7 25.23C10.82 25.28 10.92 25.37 10.99 25.47C11.06 25.58 11.1 25.71 11.1 25.83C11.1 25.92 11.08 26.01 11.05 26.09C11.02 26.17 10.97 26.24 10.91 26.3C10.85 26.36 10.78 26.41 10.7 26.44C10.62 26.47 10.54 26.49 10.45 26.49L10.46 26.49ZM18.98 37.04C18.85 37.04 18.73 37 18.62 36.93C18.52 36.85 18.44 36.75 18.39 36.63C18.34 36.51 18.33 36.38 18.35 36.26C18.38 36.13 18.44 36.01 18.53 35.92C18.62 35.83 18.73 35.77 18.86 35.75C18.98 35.72 19.11 35.73 19.23 35.78C19.34 35.83 19.44 35.92 19.51 36.02C19.58 36.13 19.62 36.26 19.62 36.38C19.62 36.56 19.55 36.72 19.43 36.84C19.31 36.97 19.15 37.04 18.98 37.04ZM19.08 28.75C18.95 28.74 18.83 28.7 18.73 28.63C18.62 28.55 18.54 28.45 18.5 28.33C18.45 28.21 18.44 28.08 18.47 27.96C18.5 27.83 18.56 27.72 18.65 27.63C18.74 27.54 18.86 27.48 18.98 27.46C19.11 27.43 19.23 27.45 19.35 27.5C19.46 27.55 19.56 27.63 19.63 27.74C19.7 27.84 19.74 27.97 19.74 28.1C19.74 28.18 19.72 28.27 19.69 28.35C19.66 28.43 19.61 28.5 19.55 28.56C19.49 28.62 19.42 28.67 19.34 28.7C19.26 28.73 19.18 28.75 19.09 28.75L19.08 28.75ZM19.04 26.49C18.95 26.49 18.87 26.5 18.79 26.51L17.88 23.38L19.84 24.06L19.04 26.49ZM22.21 19.98C22.44 19.96 22.66 19.89 22.85 19.78L33.87 20C33.87 20 33.87 20.03 33.87 20.04C33.87 20.26 33.91 20.48 34 20.68L28.9 24.97C28.66 24.83 28.39 24.75 28.11 24.75C27.85 24.75 27.6 24.82 27.37 24.94C27.14 25.06 26.95 25.24 26.8 25.45L21.05 23.45L22.21 19.98ZM28.1 37.04C27.97 37.04 27.84 37 27.74 36.93C27.63 36.85 27.55 36.75 27.5 36.63C27.45 36.51 27.44 36.38 27.47 36.26C27.49 36.13 27.55 36.01 27.64 35.92C27.73 35.83 27.85 35.77 27.97 35.75C28.09 35.72 28.22 35.73 28.34 35.78C28.46 35.83 28.56 35.92 28.63 36.02C28.7 36.13 28.74 36.26 28.74 36.38C28.74 36.56 28.67 36.72 28.55 36.84C28.43 36.97 28.27 37.04 28.1 37.04ZM28.1 27.01C27.97 27.01 27.84 26.98 27.74 26.9C27.63 26.83 27.55 26.73 27.5 26.61C27.45 26.49 27.44 26.36 27.47 26.24C27.49 26.11 27.55 25.99 27.64 25.9C27.73 25.81 27.85 25.75 27.97 25.72C28.09 25.7 28.22 25.71 28.34 25.76C28.46 25.81 28.56 25.89 28.63 26C28.7 26.11 28.74 26.23 28.74 26.36C28.74 26.54 28.67 26.7 28.55 26.82C28.43 26.95 28.27 27.01 28.1 27.01ZM35.46 20.68C35.33 20.68 35.2 20.64 35.1 20.57C34.99 20.5 34.91 20.39 34.86 20.28C34.81 20.16 34.8 20.03 34.83 19.9C34.85 19.77 34.91 19.66 35 19.57C35.09 19.47 35.21 19.41 35.33 19.39C35.46 19.36 35.58 19.37 35.7 19.42C35.82 19.47 35.92 19.56 35.99 19.66C36.06 19.77 36.1 19.9 36.1 20.03C36.1 20.2 36.03 20.36 35.91 20.48C35.8 20.6 35.64 20.67 35.47 20.68L35.46 20.68Z" fill="#2B606F" fill-opacity="1.000000" fill-rule="nonzero"/>
		<path id="IMMOIQ" d="M103.19 24.38L110.48 24.38L110.48 22.34L107.12 22.34L107.12 22.31C107.52 22.13 107.88 21.9 108.19 21.61C108.49 21.32 108.74 20.99 108.94 20.63C109.13 20.26 109.27 19.88 109.36 19.47C109.46 19.06 109.51 18.64 109.51 18.21C109.51 17.31 109.34 16.48 109 15.73C108.68 14.97 108.22 14.32 107.64 13.78Q107.54 13.68 107.44 13.59Q106.64 12.91 105.6 12.5C104.82 12.2 103.98 12.04 103.09 12.04C102.19 12.04 101.35 12.2 100.57 12.5C99.79 12.8 99.11 13.22 98.53 13.76C97.95 14.3 97.49 14.95 97.15 15.71Q96.66 16.85 96.66 18.21Q96.66 19.68 97.15 20.81C97.48 21.57 97.94 22.22 98.51 22.75C99.09 23.28 99.78 23.69 100.57 23.98C101.38 24.25 102.25 24.38 103.19 24.38ZM94.9 12.35L92.24 12.35L92.24 24.38L94.9 24.38L94.9 12.35ZM82.56 24.23C83.24 24.51 83.99 24.65 84.8 24.65C85.61 24.65 86.35 24.51 87.02 24.23C87.7 23.95 88.28 23.57 88.77 23.08C89.27 22.58 89.66 21.99 89.93 21.31C90.21 20.62 90.35 19.87 90.35 19.07Q90.35 17.87 89.93 16.85C89.66 16.16 89.27 15.57 88.77 15.08C88.28 14.58 87.7 14.19 87.02 13.91C86.35 13.63 85.61 13.49 84.8 13.49C83.99 13.49 83.24 13.63 82.56 13.91C81.89 14.19 81.31 14.58 80.81 15.08C80.32 15.57 79.93 16.16 79.65 16.85C79.38 17.53 79.25 18.27 79.25 19.07C79.25 19.87 79.38 20.62 79.65 21.31C79.93 21.99 80.32 22.58 80.81 23.08C81.31 23.57 81.89 23.95 82.56 24.23ZM50.01 13.76L48.75 13.76L48.75 24.38L50.01 24.38L50.01 13.76ZM54.52 13.76L52.65 13.76L52.65 24.38L53.91 24.38L53.91 15.47L53.94 15.47L57.75 24.38L58.51 24.38L62.32 15.47L62.35 15.47L62.35 24.38L63.61 24.38L63.61 13.76L61.78 13.76L58.15 22.09L58.12 22.09L54.52 13.76ZM68.13 13.76L66.25 13.76L66.25 24.38L67.51 24.38L67.51 15.47L67.54 15.47L71.35 24.38L72.12 24.38L75.93 15.47L75.96 15.47L75.96 24.38L77.22 24.38L77.22 13.76L75.39 13.76L71.76 22.09L71.73 22.09L68.13 13.76ZM99.7 19.68C99.51 19.22 99.42 18.73 99.42 18.21C99.42 17.69 99.51 17.2 99.7 16.75C99.9 16.3 100.16 15.91 100.49 15.58C100.83 15.24 101.22 14.97 101.66 14.78C102.1 14.59 102.58 14.49 103.09 14.49C103.6 14.49 104.07 14.59 104.52 14.78C104.96 14.97 105.34 15.24 105.67 15.58C106.01 15.91 106.28 16.3 106.47 16.75C106.66 17.2 106.76 17.69 106.76 18.21C106.76 18.73 106.66 19.22 106.47 19.68C106.28 20.13 106.01 20.53 105.67 20.87C105.34 21.19 104.96 21.45 104.52 21.65C104.07 21.84 103.6 21.94 103.09 21.94C102.58 21.94 102.1 21.84 101.66 21.65C101.22 21.45 100.83 21.19 100.49 20.87C100.16 20.53 99.9 20.13 99.7 19.68ZM86.49 23.14C85.98 23.37 85.42 23.48 84.8 23.48C84.18 23.48 83.61 23.37 83.09 23.14C82.58 22.91 82.14 22.59 81.77 22.19C81.4 21.79 81.11 21.33 80.9 20.8C80.7 20.26 80.6 19.68 80.6 19.07C80.6 18.46 80.7 17.89 80.9 17.36C81.11 16.82 81.4 16.35 81.77 15.95C82.14 15.55 82.58 15.24 83.09 15.01C83.61 14.78 84.18 14.66 84.8 14.66C85.42 14.66 85.98 14.78 86.49 15.01C87.01 15.24 87.46 15.55 87.83 15.95C88.2 16.35 88.48 16.82 88.68 17.36C88.89 17.89 89 18.46 89 19.07C89 19.68 88.89 20.26 88.68 20.8C88.48 21.33 88.2 21.79 87.83 22.19C87.46 22.59 87.01 22.91 86.49 23.14Z" fill="#2B606F" fill-opacity="1.000000" fill-rule="evenodd"/>
	</g>
</svg>
