<svg width="23.000000" height="23.000000" viewBox="0 0 23 23" fill="none" xmlns="http://www.w3.org/2000/svg" xmlns:xlink="http://www.w3.org/1999/xlink">
	<desc>
			Created with Pixso.
	</desc>
	<defs/>
	<path id="Icon" d="M5.75 1.54C2.15 3.61 0 7.38 0 11.47C0 15.61 2.15 19.38 5.75 21.45C9.29 23.51 13.65 23.51 17.25 21.45C20.79 19.38 23 15.61 23 11.47C23 7.38 20.79 3.61 17.25 1.54C13.65 -0.52 9.29 -0.52 5.75 1.54ZM16.53 2.8C19.63 4.6 21.56 7.88 21.56 11.47C21.56 15.11 19.63 18.39 16.53 20.19C13.38 22.03 9.56 22.03 6.46 20.19C3.32 18.39 1.43 15.11 1.43 11.47C1.43 7.88 3.32 4.6 6.46 2.8C9.56 0.96 13.38 0.96 16.53 2.8ZM9.97 5.72C8.84 5.72 7.86 6.53 7.54 7.61L7.54 7.65C7.45 8.01 7.68 8.42 8.08 8.51C8.44 8.64 8.84 8.37 8.93 8.01L8.93 7.97C9.07 7.52 9.52 7.16 9.97 7.16L12.57 7.16C13.34 7.16 14.01 7.83 14.01 8.64C14.01 9.18 13.7 9.68 13.2 9.9L11.14 10.98C10.91 11.07 10.78 11.34 10.78 11.61L10.78 12.91C10.78 13.31 11.09 13.63 11.5 13.63C11.85 13.63 12.21 13.31 12.21 12.91L12.21 12.06L13.88 11.2C14.82 10.71 15.45 9.72 15.45 8.64C15.45 7.03 14.15 5.72 12.57 5.72L9.97 5.72ZM11.5 14.71C10.87 14.71 10.42 15.2 10.42 15.79C10.42 16.41 10.87 16.86 11.5 16.86C12.08 16.86 12.57 16.41 12.57 15.79C12.57 15.2 12.08 14.71 11.5 14.71Z" fill="#FFFFFF" fill-opacity="1.000000" fill-rule="evenodd"/>
</svg>
